# xmcd
#
# Track frame offsets:
#	150
#	15050
#	28060
#	42570
#	55762
#	70262
#	84272
#	98250
#	114937
#	134362
#	146355
#	160052
#	180682
#	194702
#	207580
#
# Disc length: 3046 seconds
#
# Revision: 1
# Processed by: cddbd v1.5PL3 Copyright (c) Steve Scherf et al.
# Submitted via: audiograbber 1.83.01
#
DISCID=c20be40f
DTITLE=Various Artist - Los 3 Grandes Del Corrido
DYEAR=1900
DGENRE=Ethnic
TTITLE0=La Camioneta Gris
TTITLE1=Gerardo El Poderoso
TTITLE2=El Contrabando De Juarez
TTITLE3=La Bronco Negra
TTITLE4=El Balido D Emi Ganado
TTITLE5=Roberto Alvarado
TTITLE6=Temible Cuerno De Chivo
TTITLE7=El Fantasma
TTITLE8=Vacas De A Kilo
TTITLE9=El Rayo De Sinaloa
TTITLE10=El Jablai
TTITLE11=Candido Rodriguez
TTITLE12=Reto A La Ley
TTITLE13=Socias De La Mafia
TTITLE14=Sierra De Badiraguato
EXTD=
EXTT0=
EXTT1=
EXTT2=
EXTT3=
EXTT4=
EXTT5=
EXTT6=
EXTT7=
EXTT8=
EXTT9=
EXTT10=
EXTT11=
EXTT12=
EXTT13=
EXTT14=
PLAYORDER=
